<?xml version="1.0" standalone="no"?>
<!DOCTYPE svg PUBLIC "-//W3C//DTD SVG 20010904//EN"
 "http://www.w3.org/TR/2001/REC-SVG-20010904/DTD/svg10.dtd">
<svg version="1.0" xmlns="http://www.w3.org/2000/svg"
 width="718.000000pt" height="456.000000pt" viewBox="0 0 718.000000 456.000000"
 preserveAspectRatio="xMidYMid meet">

<g transform="translate(0.000000,456.000000) scale(0.100000,-0.100000)"
fill="#000000" stroke="none">
<path d="M0 2280 l0 -2280 3590 0 3590 0 0 2280 0 2280 -2497 -1 c-1374 0
-2487 -4 -2473 -8 105 -32 180 -126 180 -224 0 -25 3 -27 23 -20 38 14 110 7
152 -15 52 -26 89 -66 114 -122 30 -66 28 -80 -14 -80 -19 0 -35 -4 -35 -10 0
-5 16 -10 36 -10 l37 0 -6 -50 c-3 -28 -9 -55 -12 -60 -3 -6 -45 -10 -94 -10
l-87 0 -44 45 c-39 39 -45 52 -45 87 0 32 -5 45 -27 61 -24 18 -30 18 -57 7
-75 -31 -36 -144 42 -125 17 5 34 -7 77 -50 l54 -55 71 0 c63 0 76 -3 112 -30
40 -30 73 -70 73 -90 0 -6 -34 -10 -88 -10 l-88 0 -49 50 -49 50 -112 0 c-103
0 -112 2 -117 20 -3 11 -17 25 -32 32 -48 22 -104 -25 -91 -75 3 -15 18 -34
31 -43 21 -14 30 -14 54 -4 16 6 32 18 35 26 4 11 30 14 114 14 l108 0 44 -45
44 -45 107 0 c102 0 107 -1 113 -22 3 -13 6 -33 6 -45 l0 -23 -185 0 c-173 0
-185 1 -195 20 -17 32 -47 43 -80 30 -71 -29 -50 -130 28 -130 10 0 29 11 42
25 23 25 24 25 207 25 180 0 184 -1 179 -20 -19 -65 -7 -60 -130 -60 l-112 0
-44 -45 -44 -45 -112 0 c-98 0 -113 2 -129 20 -37 41 -115 11 -115 -45 0 -31
33 -65 63 -65 28 0 67 26 67 46 0 11 22 14 118 14 l118 0 44 45 44 45 93 0
c55 0 93 -4 93 -10 0 -21 -96 -80 -150 -91 -45 -10 -65 -22 -110 -66 -49 -46
-60 -53 -85 -47 -63 12 -101 -71 -53 -116 28 -26 48 -25 83 2 23 18 26 27 22
59 -4 34 -1 41 42 83 62 61 94 62 145 6 20 -22 36 -44 36 -49 0 -5 3 -16 6
-25 9 -24 -31 -21 -56 4 -28 28 -64 13 -68 -28 -4 -38 26 -59 58 -42 26 14 26
15 -12 15 -29 0 -33 3 -33 25 0 34 50 42 60 11 4 -14 15 -21 31 -21 20 0 24
-5 24 -30 0 -35 -29 -97 -57 -122 -49 -45 -140 -61 -192 -33 l-29 14 -4 -64
c-5 -78 -41 -137 -105 -173 -113 -62 -268 -20 -323 87 -20 39 -20 57 -20 789
l0 748 28 26 c32 30 66 49 107 59 17 4 -60 7 -170 7 -181 1 -196 -1 -157 -13
23 -7 58 -25 77 -40 l35 -26 0 -766 c0 -764 0 -767 -21 -798 -12 -17 -38 -42
-58 -56 -101 -72 -215 -64 -302 21 -49 47 -69 94 -69 163 0 37 0 38 -22 23
-50 -35 -160 -8 -211 53 -24 29 -47 86 -47 119 0 19 44 14 63 -8 21 -25 39
-25 61 -1 22 24 18 49 -10 67 -18 13 -24 12 -47 -6 -53 -42 -74 -15 -36 46 48
79 95 84 161 17 40 -41 46 -53 45 -87 -1 -42 28 -76 65 -76 27 0 68 44 68 74
0 33 -46 69 -81 62 -21 -4 -35 4 -78 48 -44 44 -61 55 -97 60 -24 3 -57 12
-73 20 -37 19 -91 65 -91 77 0 5 42 9 93 9 l93 0 44 -45 44 -45 111 0 111 0
22 -30 c29 -39 72 -41 101 -4 12 15 21 32 21 39 0 7 -9 24 -21 39 -25 32 -71
35 -96 6 -16 -18 -30 -20 -128 -20 l-111 0 -44 45 -44 45 -113 0 c-113 0 -114
0 -123 26 -21 55 -25 54 170 54 178 0 179 0 204 -25 30 -30 69 -32 96 -5 29
29 26 74 -6 99 -36 28 -50 26 -86 -9 l-30 -30 -182 0 -182 0 5 43 6 42 106 3
105 3 44 44 44 45 108 0 c102 0 108 -1 133 -26 28 -28 65 -27 94 1 23 22 18
75 -8 97 -33 26 -59 22 -91 -12 -28 -30 -29 -30 -135 -30 l-107 0 -45 -50 -45
-50 -94 0 c-52 0 -94 4 -94 8 0 16 72 93 101 107 16 9 56 15 96 15 l69 0 54
55 c47 48 59 55 82 50 21 -5 33 -1 53 19 32 32 32 60 0 91 -26 27 -46 31 -75
15 -23 -12 -41 -62 -29 -81 6 -10 -7 -29 -44 -66 l-51 -53 -83 0 c-92 0 -95 2
-108 78 l-7 42 32 0 c18 0 43 -9 57 -20 23 -18 29 -19 47 -7 31 21 32 53 1 73
-25 16 -27 16 -49 -5 -30 -28 -76 -29 -76 -1 0 34 29 93 63 128 63 66 149 94
210 68 l37 -15 0 46 c0 92 67 179 160 208 39 12 -58 14 -777 14 l-823 1 0
-2280z m1504 1844 c20 -20 20 -48 0 -68 -29 -30 -74 -10 -74 32 0 49 42 69 74
36z m877 6 c23 -13 25 -53 3 -74 -29 -30 -74 -10 -74 32 0 46 30 64 71 42z
m-1113 -53 c-2 -17 -10 -22 -33 -22 -35 0 -47 31 -20 51 25 18 57 0 53 -29z
m397 -171 c30 -45 -16 -91 -61 -61 -28 18 -31 46 -8 69 22 23 51 20 69 -8z
m563 12 c19 -19 15 -66 -7 -78 -11 -5 -24 -10 -30 -10 -16 0 -41 30 -41 50 0
39 52 64 78 38z m-723 -214 c24 -25 15 -67 -17 -78 -34 -12 -58 6 -58 45 0 44
44 63 75 33z m879 -3 c25 -27 17 -64 -16 -75 -34 -12 -58 6 -58 45 0 45 44 63
74 30z m-685 -219 c22 -42 -13 -82 -59 -67 -25 8 -37 50 -20 70 18 21 67 19
79 -3z m495 12 c19 -7 21 -55 4 -72 -28 -28 -78 -7 -78 33 0 38 33 55 74 39z
m-720 -200 c20 -20 20 -48 0 -68 -30 -30 -74 -10 -74 34 0 44 44 65 74 34z
m940 0 c20 -20 20 -48 0 -68 -30 -30 -74 -10 -74 34 0 44 44 65 74 34z m-1149
-34 c0 -20 -6 -26 -28 -28 -18 -2 -29 2 -33 12 -11 28 4 48 33 44 22 -2 28 -8
28 -28z"/>
<path d="M2568 4119 c-25 -14 -24 -65 2 -79 14 -8 26 -8 40 0 26 14 26 15 -12
15 -28 0 -33 4 -36 26 -4 31 19 44 51 28 21 -10 21 -10 3 5 -23 19 -25 19 -48
5z"/>
</g>
</svg>
