<?xml version="1.0" standalone="no"?>
<!DOCTYPE svg PUBLIC "-//W3C//DTD SVG 20010904//EN"
 "http://www.w3.org/TR/2001/REC-SVG-20010904/DTD/svg10.dtd">
<svg version="1.0" xmlns="http://www.w3.org/2000/svg"
 width="226.000000pt" height="206.000000pt" viewBox="0 0 226.000000 206.000000"
 preserveAspectRatio="xMidYMid meet">
<metadata>
Created by potrace 1.10, written by Peter Selinger 2001-2011
</metadata>
<g transform="translate(0.000000,206.000000) scale(0.100000,-0.100000)"
fill="#3b76b9" stroke="none">
<path d="M1693 1986 c-111 -53 -188 -173 -181 -284 l3 -54 -42 48 c-41 47 -42
48 -62 30 -46 -41 -64 -129 -41 -192 10 -25 9 -26 -7 -13 -10 7 -30 24 -46 38
l-27 25 -65 -64 -65 -64 77 -79 78 -78 -55 25 c-116 54 -232 26 -327 -78 -88
-96 -103 -193 -48 -313 l25 -54 -33 27 c-94 79 -218 72 -304 -18 -35 -36 -63
-94 -63 -130 0 -18 -26 4 -130 107 l-130 130 -70 -70 -70 -70 262 -262 263
-263 132 0 c73 0 133 3 133 8 0 4 -45 52 -101 107 -126 124 -159 168 -159 210
0 46 34 85 73 85 47 0 88 -29 219 -158 l119 -116 67 67 67 67 -85 86 -85 85
55 -28 c47 -24 67 -28 135 -28 70 0 87 4 132 29 62 34 152 125 182 183 l21 41
-49 31 c-26 17 -50 31 -54 31 -3 0 -22 -23 -42 -50 -67 -92 -151 -126 -204
-82 -22 17 -21 18 114 152 l135 135 85 -85 85 -85 72 73 73 72 -117 117 c-150
153 -170 191 -132 266 31 61 34 61 69 10 99 -148 255 -213 388 -163 68 26 173
118 214 188 l26 44 -24 19 c-13 10 -39 26 -56 36 -33 17 -33 17 -50 -7 -33
-47 -87 -101 -114 -116 -48 -24 -129 -11 -129 22 0 5 59 67 130 139 l131 131
-56 56 c-76 75 -132 102 -220 106 -58 2 -79 -1 -122 -22z m100 -139 c18 -8 38
-22 46 -31 13 -16 8 -23 -47 -78 -55 -55 -62 -60 -78 -47 -27 22 -45 75 -35
101 12 31 42 57 79 67 1 1 17 -5 35 -12z m-637 -678 c19 -11 34 -24 34 -28 0
-3 -29 -35 -64 -70 l-63 -63 -22 30 c-12 17 -24 44 -27 61 -5 25 -1 36 24 61
36 36 71 39 118 9z"/>
</g>
</svg>
