<?xml version="1.0" standalone="no"?>
<!DOCTYPE svg PUBLIC "-//W3C//DTD SVG 20010904//EN"
 "http://www.w3.org/TR/2001/REC-SVG-20010904/DTD/svg10.dtd">
<svg version="1.0" xmlns="http://www.w3.org/2000/svg"
 width="900.000000pt" height="549.000000pt" viewBox="0 0 900.000000 549.000000"
 preserveAspectRatio="xMidYMid meet">
<metadata>
Created by potrace 1.10, written by Peter Selinger 2001-2011
</metadata>
<g transform="translate(0.000000,549.000000) scale(0.100000,-0.100000)"
fill="#3b76b9" stroke="none">
<path d="M5585 3584 c-193 -46 -364 -180 -460 -360 -45 -85 -61 -229 -40 -371
11 -80 -7 -69 -118 64 -51 62 -72 80 -87 76 -29 -8 -126 -114 -148 -164 -32
-69 -52 -152 -52 -212 0 -31 -4 -59 -10 -62 -13 -8 -43 9 -80 45 -17 17 -36
30 -43 30 -17 0 -270 -257 -265 -269 1 -6 63 -70 136 -144 162 -164 171 -189
47 -127 -33 16 -67 30 -75 30 -9 0 -22 6 -28 13 -17 16 -249 17 -283 1 -13 -6
-46 -22 -74 -34 -153 -71 -302 -239 -363 -410 -20 -57 -23 -236 -4 -300 8 -25
27 -73 44 -107 46 -95 33 -105 -54 -39 -112 83 -220 115 -327 96 -85 -15 -154
-54 -231 -130 -87 -86 -130 -170 -137 -267 -6 -73 -13 -82 -43 -63 -8 5 -123
117 -255 249 -133 133 -249 241 -257 241 -8 0 -82 -66 -163 -146 l-148 -146
524 -524 524 -523 300 -1 c165 0 306 -1 314 0 8 0 -102 116 -243 258 -141 141
-267 273 -279 292 -11 19 -24 37 -28 40 -9 7 -22 69 -21 104 1 36 41 94 87
125 29 19 44 23 85 19 64 -6 74 -15 396 -337 144 -144 265 -261 270 -261 5 0
78 68 163 152 l153 151 -148 148 c-82 81 -150 155 -152 163 -2 9 -8 16 -14 16
-6 0 -9 2 -7 5 6 5 60 -14 120 -43 78 -38 288 -67 312 -43 6 6 26 11 45 11 35
0 63 10 170 63 57 27 181 118 207 151 6 8 38 45 73 84 58 64 112 136 112 148
0 2 11 22 25 44 31 49 31 68 3 80 -13 6 -39 20 -58 31 -19 12 -60 35 -90 51
-30 17 -59 34 -65 39 -19 19 -34 7 -80 -62 -43 -63 -167 -198 -206 -224 -58
-39 -95 -50 -173 -50 -86 0 -136 20 -136 53 0 20 544 562 564 562 8 0 91 -76
184 -170 94 -93 177 -170 186 -170 20 0 306 281 306 300 0 7 -100 115 -223
239 -275 278 -302 318 -302 452 0 82 1 87 34 130 42 54 108 109 130 109 9 -1
32 -26 51 -56 108 -172 319 -330 485 -365 107 -23 256 -13 335 22 154 68 235
129 348 263 112 132 208 288 196 319 -2 7 -17 18 -32 24 -29 12 -124 65 -132
73 -3 3 -24 15 -48 28 -34 19 -46 21 -58 11 -8 -6 -14 -16 -14 -22 0 -5 -11
-25 -25 -43 -14 -18 -25 -37 -25 -42 0 -11 -46 -67 -119 -145 -107 -113 -214
-160 -317 -137 -49 11 -84 34 -84 54 0 6 126 137 280 291 l280 280 -83 83
c-112 113 -255 209 -337 227 -19 4 -40 11 -47 17 -12 10 -167 20 -198 12z
m139 -378 c76 -41 76 -41 -84 -201 -80 -80 -152 -145 -162 -145 -22 0 -53 45
-68 98 -8 33 -8 57 0 98 6 30 15 54 19 54 4 0 13 11 19 25 13 28 105 91 143
97 38 7 91 -4 133 -26z m-1427 -1438 c67 -40 66 -42 -98 -202 -94 -93 -156
-146 -166 -144 -43 8 -78 125 -61 203 14 64 105 155 169 168 42 8 120 -4 156
-25z"/>
</g>
</svg>
